<?xml version="1.0" encoding="UTF-8"?>
<!DOCTYPE svg PUBLIC "-//W3C//DTD SVG 1.1//EN" "http://www.w3.org/Graphics/SVG/1.1/DTD/svg11.dtd">
<svg xmlns="http://www.w3.org/2000/svg" version="1.1" width="474px" height="386px" style="shape-rendering:geometricPrecision; text-rendering:geometricPrecision; image-rendering:optimizeQuality; fill-rule:evenodd; clip-rule:evenodd" xmlns:xlink="http://www.w3.org/1999/xlink">
<g><path style="opacity:0.749" fill="#9e9c9b" d="M 409.5,1.5 C 410.919,0.548855 412.585,0.215521 414.5,0.5C 414.5,1.5 414.5,2.5 414.5,3.5C 413.221,2.03201 411.554,1.36534 409.5,1.5 Z"/></g>
<g><path style="opacity:1" fill="#29241f" d="M 409.5,1.5 C 411.554,1.36534 413.221,2.03201 414.5,3.5C 417.273,7.38468 419.273,11.718 420.5,16.5C 420.751,18.1703 421.418,19.6703 422.5,21C 421.944,21.3826 421.611,21.8826 421.5,22.5C 417.858,17.9026 414.692,12.9026 412,7.5C 376.411,4.92917 342.911,12.0958 311.5,29C 298.902,36.931 289.068,47.431 282,60.5C 282.607,70.8987 283.941,81.232 286,91.5C 291.352,87.6364 296.519,83.6364 301.5,79.5C 304.366,77.5675 307.366,75.9009 310.5,74.5C 311.458,75.9616 312.624,77.2949 314,78.5C 314.167,79.8333 314.333,81.1667 314.5,82.5C 312.669,92.8202 311.002,103.154 309.5,113.5C 311.786,113.405 313.786,112.738 315.5,111.5C 320.177,110.92 324.51,109.587 328.5,107.5C 332.634,105.992 336.634,106.325 340.5,108.5C 341.167,111.977 341.834,115.311 342.5,118.5C 341.203,123.267 341.203,127.934 342.5,132.5C 341.431,135.408 341.264,138.408 342,141.5C 348.137,138.52 353.97,135.187 359.5,131.5C 359.56,132.043 359.893,132.376 360.5,132.5C 368.847,127.81 377.181,123.143 385.5,118.5C 389.906,116.253 394.406,114.253 399,112.5C 401.54,112.875 403.374,114.208 404.5,116.5C 400.278,125.68 396.778,135.013 394,144.5C 398.699,140.3 403.199,135.966 407.5,131.5C 412.833,126.5 418.167,121.5 423.5,116.5C 424.151,115.909 424.818,115.243 425.5,114.5C 427.5,115.833 429.5,117.167 431.5,118.5C 427.301,127.106 423.301,135.773 419.5,144.5C 419.565,144.938 419.399,145.272 419,145.5C 418.722,144.584 418.222,143.918 417.5,143.5C 420.146,136.567 422.312,129.567 424,122.5C 416.298,130.035 408.798,137.702 401.5,145.5C 395.175,151.325 389.009,157.325 383,163.5C 386.333,149.493 390.5,135.66 395.5,122C 395.167,121.5 394.833,121 394.5,120.5C 391.262,122.275 388.262,124.275 385.5,126.5C 382.008,127.41 379.008,129.076 376.5,131.5C 368.136,135.677 360.136,140.344 352.5,145.5C 346.554,148.809 340.554,152.142 334.5,155.5C 333.667,141.512 333.167,127.512 333,113.5C 331.698,114.085 330.531,114.751 329.5,115.5C 319.964,118.599 310.631,122.266 301.5,126.5C 301.167,125.833 300.833,125.167 300.5,124.5C 302.427,115.201 304.093,105.868 305.5,96.5C 306.543,92.477 307.543,88.3103 308.5,84C 308.167,83.5 307.833,83 307.5,82.5C 299.588,87.9437 291.921,93.6104 284.5,99.5C 283.504,99.4142 282.671,99.7476 282,100.5C 280,87.8317 278,75.1651 276,62.5C 265.615,102.184 272.782,138.184 297.5,170.5C 300.137,174.248 303.137,177.748 306.5,181C 310.606,183.202 314.94,184.702 319.5,185.5C 326.238,187.907 333.238,189.573 340.5,190.5C 343.628,191.632 346.962,192.465 350.5,193C 357.492,193.5 364.492,193.666 371.5,193.5C 381.698,191.234 391.364,187.568 400.5,182.5C 408.089,177.249 415.089,171.249 421.5,164.5C 422.289,164.783 422.956,165.283 423.5,166C 422.29,167.039 421.29,168.206 420.5,169.5C 417.5,174.5 413.5,178.5 408.5,181.5C 406.227,181.957 404.894,183.29 404.5,185.5C 404.167,185.5 403.833,185.5 403.5,185.5C 401.973,185.427 400.973,186.094 400.5,187.5C 399.833,187.5 399.5,187.833 399.5,188.5C 397.62,188.229 396.287,188.896 395.5,190.5C 393.388,192.771 390.721,194.104 387.5,194.5C 383.014,195.269 378.68,196.269 374.5,197.5C 366.899,201.637 359.232,205.803 351.5,210C 350.253,211.946 348.92,213.78 347.5,215.5C 347.167,215.333 346.833,215.167 346.5,215C 348.751,211.247 350.418,207.247 351.5,203C 350.93,199.032 348.597,196.866 344.5,196.5C 338.649,200.518 334.482,205.851 332,212.5C 329.281,215.922 326.114,218.422 322.5,220C 323.71,218.961 324.71,217.794 325.5,216.5C 328.738,214.427 331.071,211.594 332.5,208C 332.164,206.97 331.497,206.47 330.5,206.5C 329.081,205.549 327.415,205.216 325.5,205.5C 325.131,203.007 325.797,202.34 327.5,203.5C 328.817,203.821 330.151,204.154 331.5,204.5C 333.038,204.547 334.038,203.88 334.5,202.5C 335.833,201.833 336.833,200.833 337.5,199.5C 337.611,198.883 337.944,198.383 338.5,198C 326.591,197.822 314.758,197.322 303,196.5C 301.171,196.565 299.338,196.898 297.5,197.5C 297.5,196.833 297.167,196.5 296.5,196.5C 296.158,195.662 295.492,195.328 294.5,195.5C 294.573,193.973 293.906,192.973 292.5,192.5C 292.5,192.167 292.5,191.833 292.5,191.5C 291.167,190.167 291.167,188.833 292.5,187.5C 294.566,185.801 296.9,184.468 299.5,183.5C 300.239,183.631 300.906,183.464 301.5,183C 302.738,182.31 302.738,181.81 301.5,181.5C 300.5,180.167 299.5,178.833 298.5,177.5C 297.5,174.5 295.5,172.5 292.5,171.5C 292.5,171.167 292.5,170.833 292.5,170.5C 292.573,168.973 291.906,167.973 290.5,167.5C 289.503,164.845 287.836,162.845 285.5,161.5C 285.715,159.821 285.048,158.821 283.5,158.5C 277.965,150.245 273.965,141.245 271.5,131.5C 271.59,128.848 270.924,126.515 269.5,124.5C 269.656,120.236 268.989,116.236 267.5,112.5C 266.03,97.4547 266.696,82.4547 269.5,67.5C 271.308,66.0821 271.975,64.0821 271.5,61.5C 271.5,60.5 271.5,59.5 271.5,58.5C 273.176,57.8166 273.843,56.4832 273.5,54.5C 274.791,54.7373 275.791,54.404 276.5,53.5C 277.167,53.5 277.833,53.5 278.5,53.5C 280.59,54.7908 281.924,54.1242 282.5,51.5C 282.427,49.9731 283.094,48.9731 284.5,48.5C 286.587,47.4154 287.92,45.7488 288.5,43.5C 289.167,41.5 290.5,40.1667 292.5,39.5C 295.5,37.1667 298.167,34.5 300.5,31.5C 302.749,30.9202 304.415,29.5869 305.5,27.5C 309.32,24.0166 313.653,21.3499 318.5,19.5C 322.165,19.4982 325.165,18.1648 327.5,15.5C 329.898,15.7406 331.898,15.0739 333.5,13.5C 341.353,9.99156 349.687,7.99156 358.5,7.5C 363.766,7.81124 368.766,7.14457 373.5,5.5C 385.415,3.50751 397.415,2.17417 409.5,1.5 Z M 315.5,189.5 C 322.727,191.942 330.06,194.109 337.5,196C 326.833,196.667 316.167,196.667 305.5,196C 309.009,193.97 312.342,191.804 315.5,189.5 Z"/></g>
<g><path style="opacity:1" fill="#615d5b" d="M 373.5,5.5 C 368.766,7.14457 363.766,7.81124 358.5,7.5C 363.234,5.85543 368.234,5.18876 373.5,5.5 Z"/></g>
<g><path style="opacity:1" fill="#b57146" d="M 421.5,22.5 C 427.518,33.8724 433.018,45.5391 438,57.5C 441.382,67.2447 443.549,77.2447 444.5,87.5C 443.503,87.5299 442.836,87.0299 442.5,86C 441.911,81.6809 440.578,77.6809 438.5,74C 439.811,71.7265 439.811,69.5598 438.5,67.5C 437.568,62.311 435.568,57.6443 432.5,53.5C 430.262,48.9289 427.262,44.9289 423.5,41.5C 418.383,35.718 412.383,31.0513 405.5,27.5C 405.5,27.1667 405.5,26.8333 405.5,26.5C 408.315,21.5343 409.981,16.201 410.5,10.5C 409.127,10.3433 407.793,10.51 406.5,11C 402.292,14.713 397.959,18.213 393.5,21.5C 393.167,21.5 392.833,21.5 392.5,21.5C 374.873,16.4258 357.207,16.2592 339.5,21C 335.02,22.0779 331.02,23.9113 327.5,26.5C 326.448,26.3505 325.448,26.5172 324.5,27C 320.92,29.2774 317.586,31.7774 314.5,34.5C 309.895,37.4357 305.895,41.1024 302.5,45.5C 300.265,48.2911 298.265,51.2911 296.5,54.5C 295.655,55.6715 294.989,57.0048 294.5,58.5C 291.464,63.6505 290.13,69.3172 290.5,75.5C 292.819,74.833 295.153,74.6664 297.5,75C 298.579,76.8587 299.912,78.3587 301.5,79.5C 296.519,83.6364 291.352,87.6364 286,91.5C 283.941,81.232 282.607,70.8987 282,60.5C 289.068,47.431 298.902,36.931 311.5,29C 342.911,12.0958 376.411,4.92917 412,7.5C 414.692,12.9026 417.858,17.9026 421.5,22.5 Z"/></g>
<g><path style="opacity:1" fill="#0c0805" d="M 405.5,26.5 C 404.041,26.5674 402.708,26.2341 401.5,25.5C 404.241,19.9138 403.241,19.2472 398.5,23.5C 396.447,23.5979 394.78,22.9313 393.5,21.5C 397.959,18.213 402.292,14.713 406.5,11C 407.793,10.51 409.127,10.3433 410.5,10.5C 409.981,16.201 408.315,21.5343 405.5,26.5 Z"/></g>
<g><path style="opacity:1" fill="#7a7775" d="M 333.5,13.5 C 331.898,15.0739 329.898,15.7406 327.5,15.5C 329.102,13.9261 331.102,13.2594 333.5,13.5 Z"/></g>
<g><path style="opacity:1" fill="#676462" d="M 327.5,15.5 C 325.165,18.1648 322.165,19.4982 318.5,19.5C 321.088,17.3754 324.088,16.0421 327.5,15.5 Z"/></g>
<g><path style="opacity:1" fill="#e8d1c1" d="M 392.5,21.5 C 391.674,23.2644 390.341,24.5977 388.5,25.5C 388.265,24.9033 387.765,24.5699 387,24.5C 378.432,25.0032 369.932,26.0032 361.5,27.5C 350.059,27.7003 338.725,27.367 327.5,26.5C 331.02,23.9113 335.02,22.0779 339.5,21C 357.207,16.2592 374.873,16.4258 392.5,21.5 Z"/></g>
<g><path style="opacity:1" fill="#342e2a" d="M 420.5,16.5 C 426.708,23.7161 431.708,31.7161 435.5,40.5C 435.427,42.0269 436.094,43.0269 437.5,43.5C 445.233,59.8268 449.567,77.1602 450.5,95.5C 450.367,99.959 449.701,104.292 448.5,108.5C 446.882,111.171 446.215,114.171 446.5,117.5C 444.989,120.544 444.322,123.878 444.5,127.5C 444.369,128.376 444.702,129.043 445.5,129.5C 447.191,127.744 449.191,127.244 451.5,128C 452.13,129.892 453.13,131.559 454.5,133C 453.619,133.708 452.953,134.542 452.5,135.5C 448.833,137.167 446.167,139.833 444.5,143.5C 442.833,145.5 441.167,147.5 439.5,149.5C 436.5,150.5 434.5,152.5 433.5,155.5C 430.19,159.318 427.024,163.318 424,167.5C 423.184,168.823 422.017,169.489 420.5,169.5C 421.29,168.206 422.29,167.039 423.5,166C 422.956,165.283 422.289,164.783 421.5,164.5C 430.041,155.459 438.041,145.959 445.5,136C 434.907,141.386 424.407,147.22 414,153.5C 413.601,153.272 413.435,152.938 413.5,152.5C 414.463,149.256 415.796,146.256 417.5,143.5C 418.222,143.918 418.722,144.584 419,145.5C 419.399,145.272 419.565,144.938 419.5,144.5C 425.739,141.458 431.906,138.125 438,134.5C 443.021,119.341 445.188,103.674 444.5,87.5C 443.549,77.2447 441.382,67.2447 438,57.5C 433.018,45.5391 427.518,33.8724 421.5,22.5C 421.611,21.8826 421.944,21.3826 422.5,21C 421.418,19.6703 420.751,18.1703 420.5,16.5 Z"/></g>
<g><path style="opacity:0.82" fill="#918f8e" d="M 305.5,27.5 C 304.415,29.5869 302.749,30.9202 300.5,31.5C 301.585,29.4131 303.251,28.0798 305.5,27.5 Z"/></g>
<g><path style="opacity:1" fill="#e4c7b3" d="M 388.5,25.5 C 385.874,27.8235 383.207,30.1568 380.5,32.5C 378.19,31.8362 375.69,31.5029 373,31.5C 354.139,32.594 335.306,33.9273 316.5,35.5C 315.584,35.4573 314.917,35.1239 314.5,34.5C 317.586,31.7774 320.92,29.2774 324.5,27C 325.448,26.5172 326.448,26.3505 327.5,26.5C 338.725,27.367 350.059,27.7003 361.5,27.5C 369.932,26.0032 378.432,25.0032 387,24.5C 387.765,24.5699 388.265,24.9033 388.5,25.5 Z"/></g>
<g><path style="opacity:1" fill="#979594" d="M 300.5,31.5 C 298.167,34.5 295.5,37.1667 292.5,39.5C 294.167,35.8333 296.833,33.1667 300.5,31.5 Z"/></g>
<g><path style="opacity:1" fill="#8b8a88" d="M 392.5,21.5 C 392.833,21.5 393.167,21.5 393.5,21.5C 394.78,22.9313 396.447,23.5979 398.5,23.5C 392.47,29.5309 386.137,35.1976 379.5,40.5C 377.735,39.5386 375.735,39.2053 373.5,39.5C 375.527,36.8061 377.861,34.4728 380.5,32.5C 383.207,30.1568 385.874,27.8235 388.5,25.5C 390.341,24.5977 391.674,23.2644 392.5,21.5 Z"/></g>
<g><path style="opacity:1" fill="#828180" d="M 401.5,25.5 C 402.708,26.2341 404.041,26.5674 405.5,26.5C 405.5,26.8333 405.5,27.1667 405.5,27.5C 403.5,31.8333 401.5,36.1667 399.5,40.5C 398.142,40.1778 396.475,40.1778 394.5,40.5C 396.436,35.2563 398.769,30.2563 401.5,25.5 Z"/></g>
<g><path style="opacity:1" fill="#e2bb9f" d="M 380.5,32.5 C 377.861,34.4728 375.527,36.8061 373.5,39.5C 365.905,44.7578 358.905,50.7578 352.5,57.5C 348.209,60.1231 344.543,63.4564 341.5,67.5C 335.537,72.1281 329.87,77.1281 324.5,82.5C 324.244,80.2075 324.577,78.0408 325.5,76C 324.687,69.5809 324.187,63.0809 324,56.5C 322.956,55.3774 322.29,54.0441 322,52.5C 317.021,49.0628 311.354,47.3961 305,47.5C 303.624,47.3158 302.791,46.6491 302.5,45.5C 305.895,41.1024 309.895,37.4357 314.5,34.5C 314.917,35.1239 315.584,35.4573 316.5,35.5C 335.306,33.9273 354.139,32.594 373,31.5C 375.69,31.5029 378.19,31.8362 380.5,32.5 Z"/></g>
<g><path style="opacity:1" fill="#f8f8bf" d="M 401.5,25.5 C 398.769,30.2563 396.436,35.2563 394.5,40.5C 393.5,41.8333 392.5,43.1667 391.5,44.5C 386.167,44.8333 380.833,45.1667 375.5,45.5C 376.833,43.8333 378.167,42.1667 379.5,40.5C 386.137,35.1976 392.47,29.5309 398.5,23.5C 403.241,19.2472 404.241,19.9138 401.5,25.5 Z"/></g>
<g><path style="opacity:1" fill="#d9b297" d="M 405.5,27.5 C 412.383,31.0513 418.383,35.718 423.5,41.5C 415.196,42.0046 406.863,43.0046 398.5,44.5C 398.833,43.1667 399.167,41.8333 399.5,40.5C 401.5,36.1667 403.5,31.8333 405.5,27.5 Z"/></g>
<g><path style="opacity:0.337" fill="#aaa7a6" d="M 435.5,40.5 C 436.906,40.9731 437.573,41.9731 437.5,43.5C 436.094,43.0269 435.427,42.0269 435.5,40.5 Z"/></g>
<g><path style="opacity:0.918" fill="#8e8b8a" d="M 288.5,43.5 C 287.92,45.7488 286.587,47.4154 284.5,48.5C 285.08,46.2512 286.413,44.5846 288.5,43.5 Z"/></g>
<g><path style="opacity:1" fill="#929091" d="M 117.5,44.5 C 115.485,45.9238 113.152,46.5905 110.5,46.5C 112.515,45.0762 114.848,44.4095 117.5,44.5 Z"/></g>
<g><path style="opacity:1" fill="#c6c5c5" d="M 155.5,45.5 C 158.152,45.4095 160.485,46.0762 162.5,47.5C 159.848,47.5905 157.515,46.9238 155.5,45.5 Z"/></g>
<g><path style="opacity:1" fill="#686565" d="M 164.5,48.5 C 167.754,48.7936 170.421,50.127 172.5,52.5C 169.194,52.1808 166.527,50.8475 164.5,48.5 Z"/></g>
<g><path style="opacity:1" fill="#fbfaab" d="M 391.5,44.5 C 390.5,47.1667 389.5,49.8333 388.5,52.5C 385.976,56.7431 383.643,61.0764 381.5,65.5C 373.744,63.5054 365.744,62.672 357.5,63C 359.833,63.3333 362.167,63.6667 364.5,64C 361.183,64.4983 357.85,64.665 354.5,64.5C 356.527,61.8061 358.861,59.4728 361.5,57.5C 365.872,53.1256 370.539,49.1256 375.5,45.5C 380.833,45.1667 386.167,44.8333 391.5,44.5 Z"/></g>
<g><path style="opacity:1" fill="#5c5b58" d="M 399.5,40.5 C 399.167,41.8333 398.833,43.1667 398.5,44.5C 397.011,48.3233 395.344,51.99 393.5,55.5C 393.5,54.5 393.5,53.5 393.5,52.5C 391.833,52.5 390.167,52.5 388.5,52.5C 389.5,49.8333 390.5,47.1667 391.5,44.5C 392.5,43.1667 393.5,41.8333 394.5,40.5C 396.475,40.1778 398.142,40.1778 399.5,40.5 Z"/></g>
<g><path style="opacity:0.749" fill="#adabab" d="M 282.5,51.5 C 281.924,54.1242 280.59,54.7908 278.5,53.5C 279.514,52.3263 280.847,51.6596 282.5,51.5 Z"/></g>
<g><path style="opacity:1" fill="#5c5b59" d="M 373.5,39.5 C 375.735,39.2053 377.735,39.5386 379.5,40.5C 378.167,42.1667 376.833,43.8333 375.5,45.5C 370.539,49.1256 365.872,53.1256 361.5,57.5C 358.673,56.6317 355.673,56.6317 352.5,57.5C 358.905,50.7578 365.905,44.7578 373.5,39.5 Z"/></g>
<g><path style="opacity:1" fill="#8d8b8a" d="M 276.5,53.5 C 275.791,54.404 274.791,54.7373 273.5,54.5C 273.843,56.4832 273.176,57.8166 271.5,58.5C 271.183,54.8284 272.849,53.1617 276.5,53.5 Z"/></g>
<g><path style="opacity:1" fill="#3b3a38" d="M 361.5,57.5 C 358.861,59.4728 356.527,61.8061 354.5,64.5C 352.754,66.2516 350.754,67.5849 348.5,68.5C 346.393,67.5318 344.059,67.1984 341.5,67.5C 344.543,63.4564 348.209,60.1231 352.5,57.5C 355.673,56.6317 358.673,56.6317 361.5,57.5 Z"/></g>
<g><path style="opacity:1" fill="#a7a5a6" d="M 183.5,60.5 C 184.833,61.1667 185.833,62.1667 186.5,63.5C 184.5,63.5 183.5,62.5 183.5,60.5 Z"/></g>
<g><path style="opacity:1" fill="#d8a680" d="M 423.5,41.5 C 427.262,44.9289 430.262,48.9289 432.5,53.5C 430.897,55.2944 428.73,56.2944 426,56.5C 425.127,56.2645 424.293,55.9312 423.5,55.5C 418.302,56.1435 413.135,56.8102 408,57.5C 406.908,60.7095 405.741,63.8761 404.5,67C 404.833,67.3333 405.167,67.6667 405.5,68C 404.789,70.7963 404.122,73.6296 403.5,76.5C 404.95,77.8498 405.617,79.5165 405.5,81.5C 404.5,81.5 403.5,81.5 402.5,81.5C 397.069,81.2719 391.736,80.4385 386.5,79C 385.572,78.6121 384.905,77.9454 384.5,77C 384.989,75.8615 385.322,74.6948 385.5,73.5C 388.678,67.8043 391.344,61.8043 393.5,55.5C 395.344,51.99 397.011,48.3233 398.5,44.5C 406.863,43.0046 415.196,42.0046 423.5,41.5 Z"/></g>
<g><path style="opacity:1" fill="#ce8f61" d="M 432.5,53.5 C 435.568,57.6443 437.568,62.311 438.5,67.5C 438.631,68.2389 438.464,68.9056 438,69.5C 434.29,69.1774 430.457,69.1774 426.5,69.5C 427.058,68.2101 428.058,67.3768 429.5,67C 424.571,66.7206 419.738,67.2206 415,68.5C 414.667,67.5 414.333,66.5 414,65.5C 410.853,72.2472 411.02,78.9139 414.5,85.5C 410.41,84.1049 406.41,82.7716 402.5,81.5C 403.5,81.5 404.5,81.5 405.5,81.5C 405.617,79.5165 404.95,77.8498 403.5,76.5C 404.122,73.6296 404.789,70.7963 405.5,68C 405.167,67.6667 404.833,67.3333 404.5,67C 405.741,63.8761 406.908,60.7095 408,57.5C 413.135,56.8102 418.302,56.1435 423.5,55.5C 424.293,55.9312 425.127,56.2645 426,56.5C 428.73,56.2944 430.897,55.2944 432.5,53.5 Z"/></g>
<g><path style="opacity:0.569" fill="#8a8886" d="M 271.5,61.5 C 271.975,64.0821 271.308,66.0821 269.5,67.5C 269.875,65.3024 270.542,63.3024 271.5,61.5 Z"/></g>
<g><path style="opacity:1" fill="#cb8f65" d="M 294.5,58.5 C 294.561,60.5922 295.561,62.0922 297.5,63C 299.833,63.3333 302.167,63.6667 304.5,64C 306.235,67.7645 308.235,71.2645 310.5,74.5C 307.366,75.9009 304.366,77.5675 301.5,79.5C 299.912,78.3587 298.579,76.8587 297.5,75C 295.153,74.6664 292.819,74.833 290.5,75.5C 290.13,69.3172 291.464,63.6505 294.5,58.5 Z"/></g>
<g><path style="opacity:1" fill="#2a2a28" d="M 388.5,52.5 C 390.167,52.5 391.833,52.5 393.5,52.5C 393.5,53.5 393.5,54.5 393.5,55.5C 391.344,61.8043 388.678,67.8043 385.5,73.5C 384.082,71.6921 382.082,71.0254 379.5,71.5C 380.167,69.5 380.833,67.5 381.5,65.5C 383.643,61.0764 385.976,56.7431 388.5,52.5 Z"/></g>
<g><path style="opacity:1" fill="#f5e97f" d="M 381.5,65.5 C 380.833,67.5 380.167,69.5 379.5,71.5C 378.5,72.8333 377.5,74.1667 376.5,75.5C 369.108,73.2538 361.441,71.9205 353.5,71.5C 350.734,72.0937 348.068,72.427 345.5,72.5C 346.5,71.1667 347.5,69.8333 348.5,68.5C 350.754,67.5849 352.754,66.2516 354.5,64.5C 357.85,64.665 361.183,64.4983 364.5,64C 362.167,63.6667 359.833,63.3333 357.5,63C 365.744,62.672 373.744,63.5054 381.5,65.5 Z"/></g>
<g><path style="opacity:1" fill="#a09d9e" d="M 66.5,69.5 C 65.8333,70.8333 64.8333,71.8333 63.5,72.5C 63.5,70.5 64.5,69.5 66.5,69.5 Z"/></g>
<g><path style="opacity:1" fill="#d6a27b" d="M 296.5,54.5 C 299.633,55.7432 302.967,56.2432 306.5,56C 305.5,55.6667 304.5,55.3333 303.5,55C 309.123,53.1725 313.123,54.8392 315.5,60C 316.532,62.2165 316.532,64.3832 315.5,66.5C 317.804,71.0462 319.138,75.8796 319.5,81C 314.605,90.6633 313.272,100.83 315.5,111.5C 313.786,112.738 311.786,113.405 309.5,113.5C 311.002,103.154 312.669,92.8202 314.5,82.5C 314.333,81.1667 314.167,79.8333 314,78.5C 312.624,77.2949 311.458,75.9616 310.5,74.5C 308.235,71.2645 306.235,67.7645 304.5,64C 302.167,63.6667 299.833,63.3333 297.5,63C 295.561,62.0922 294.561,60.5922 294.5,58.5C 294.989,57.0048 295.655,55.6715 296.5,54.5 Z"/></g>
<g><path style="opacity:1" fill="#c27945" d="M 438.5,67.5 C 439.811,69.5598 439.811,71.7265 438.5,74C 440.578,77.6809 441.911,81.6809 442.5,86C 442.836,87.0299 443.503,87.5299 444.5,87.5C 445.188,103.674 443.021,119.341 438,134.5C 431.906,138.125 425.739,141.458 419.5,144.5C 423.301,135.773 427.301,127.106 431.5,118.5C 429.5,117.167 427.5,115.833 425.5,114.5C 424.818,115.243 424.151,115.909 423.5,116.5C 425.362,102.399 423.696,88.7326 418.5,75.5C 421.156,73.4994 423.823,71.4994 426.5,69.5C 430.457,69.1774 434.29,69.1774 438,69.5C 438.464,68.9056 438.631,68.2389 438.5,67.5 Z"/></g>
<g><path style="opacity:1" fill="#0d0a05" d="M 379.5,71.5 C 382.082,71.0254 384.082,71.6921 385.5,73.5C 385.322,74.6948 384.989,75.8615 384.5,77C 384.905,77.9454 385.572,78.6121 386.5,79C 391.736,80.4385 397.069,81.2719 402.5,81.5C 406.41,82.7716 410.41,84.1049 414.5,85.5C 415.833,86.8333 415.833,88.1667 414.5,89.5C 405.167,99.5 395.5,109.167 385.5,118.5C 377.181,123.143 368.847,127.81 360.5,132.5C 359.893,132.376 359.56,132.043 359.5,131.5C 362.167,129.5 364.5,127.167 366.5,124.5C 370.105,122.528 373.105,119.861 375.5,116.5C 379.252,113.959 382.585,110.959 385.5,107.5C 388.526,104.805 391.526,102.138 394.5,99.5C 398.172,96.1603 401.839,92.827 405.5,89.5C 395.851,87.3353 386.185,85.1686 376.5,83C 375.572,82.6121 374.905,81.9454 374.5,81C 375.32,79.1997 375.986,77.3664 376.5,75.5C 377.5,74.1667 378.5,72.8333 379.5,71.5 Z"/></g>
<g><path style="opacity:1" fill="#efdc64" d="M 376.5,75.5 C 375.986,77.3664 375.32,79.1997 374.5,81C 374.905,81.9454 375.572,82.6121 376.5,83C 386.185,85.1686 395.851,87.3353 405.5,89.5C 401.839,92.827 398.172,96.1603 394.5,99.5C 389.714,96.2614 385.047,92.7614 380.5,89C 367.69,81.5483 354.024,78.0483 339.5,78.5C 341.167,76.1667 343.167,74.1667 345.5,72.5C 348.068,72.427 350.734,72.0937 353.5,71.5C 361.441,71.9205 369.108,73.2538 376.5,75.5 Z"/></g>
<g><path style="opacity:1" fill="#aeacac" d="M 60.5,76.5 C 60.573,78.0269 59.9063,79.0269 58.5,79.5C 58.427,77.9731 59.0937,76.9731 60.5,76.5 Z"/></g>
<g><path style="opacity:1" fill="#0e0c08" d="M 341.5,67.5 C 344.059,67.1984 346.393,67.5318 348.5,68.5C 347.5,69.8333 346.5,71.1667 345.5,72.5C 343.167,74.1667 341.167,76.1667 339.5,78.5C 335.581,81.0751 331.915,84.0751 328.5,87.5C 331.438,88.4891 334.438,89.1558 337.5,89.5C 344.767,90.89 352.1,92.5567 359.5,94.5C 359.833,94.8333 360.167,95.1667 360.5,95.5C 359.117,97.3198 358.117,99.3198 357.5,101.5C 355.264,105.645 353.264,109.978 351.5,114.5C 348.13,120.251 345.13,126.251 342.5,132.5C 341.203,127.934 341.203,123.267 342.5,118.5C 344.416,112.833 346.75,107.333 349.5,102C 341.129,100.657 332.796,99.1568 324.5,97.5C 321.457,96.8086 318.791,95.3086 316.5,93C 318.601,89.0659 321.268,85.5659 324.5,82.5C 329.87,77.1281 335.537,72.1281 341.5,67.5 Z"/></g>
<g><path style="opacity:1" fill="#cf8a55" d="M 426.5,69.5 C 423.823,71.4994 421.156,73.4994 418.5,75.5C 423.696,88.7326 425.362,102.399 423.5,116.5C 418.167,121.5 412.833,126.5 407.5,131.5C 414.074,118.258 416.407,104.258 414.5,89.5C 415.833,88.1667 415.833,86.8333 414.5,85.5C 411.02,78.9139 410.853,72.2472 414,65.5C 414.333,66.5 414.667,67.5 415,68.5C 419.738,67.2206 424.571,66.7206 429.5,67C 428.058,67.3768 427.058,68.2101 426.5,69.5 Z"/></g>
<g><path style="opacity:1" fill="#939192" d="M 58.5,79.5 C 58.9689,82.3933 57.9689,84.3933 55.5,85.5C 56.5139,83.4261 57.5139,81.4261 58.5,79.5 Z"/></g>
<g><path style="opacity:1" fill="#282425" d="M 155.5,45.5 C 157.515,46.9238 159.848,47.5905 162.5,47.5C 163.492,47.3284 164.158,47.6618 164.5,48.5C 166.527,50.8475 169.194,52.1808 172.5,52.5C 176.708,54.3681 180.375,57.0347 183.5,60.5C 183.5,62.5 184.5,63.5 186.5,63.5C 194.282,70.2787 199.615,78.612 202.5,88.5C 202.723,92.1621 203.723,95.4954 205.5,98.5C 205.596,104.198 206.096,109.865 207,115.5C 207.383,116.056 207.883,116.389 208.5,116.5C 210.167,117.5 211.5,118.833 212.5,120.5C 212.738,122.404 213.738,123.738 215.5,124.5C 218.55,126.549 220.883,129.216 222.5,132.5C 227.17,140.508 231.837,148.508 236.5,156.5C 237.404,157.209 237.737,158.209 237.5,159.5C 238.264,162.018 239.264,164.351 240.5,166.5C 240.5,166.833 240.5,167.167 240.5,167.5C 242.053,173.958 243.719,180.291 245.5,186.5C 245.5,187.5 245.5,188.5 245.5,189.5C 246.833,202.167 246.833,214.833 245.5,227.5C 245.749,231.458 245.082,235.124 243.5,238.5C 241.96,240.838 241.294,243.505 241.5,246.5C 241.276,248.787 240.609,250.953 239.5,253C 241.32,255.652 243.32,258.152 245.5,260.5C 245.897,261.525 246.563,261.692 247.5,261C 249.373,259.296 251.04,257.463 252.5,255.5C 253.5,253.833 254.833,252.5 256.5,251.5C 262.227,246.776 267.227,241.442 271.5,235.5C 274.629,231.869 277.963,228.369 281.5,225C 284.563,225.043 287.563,225.377 290.5,226C 292.72,223.287 294.72,220.454 296.5,217.5C 296.833,217.5 297.167,217.5 297.5,217.5C 302.178,212.821 306.511,207.821 310.5,202.5C 311.167,202.5 311.833,202.5 312.5,202.5C 311.31,206.026 309.31,209.026 306.5,211.5C 301.219,217.789 295.886,224.122 290.5,230.5C 295.985,236.485 301.652,242.319 307.5,248C 309.134,248.494 310.801,248.66 312.5,248.5C 312.938,248.435 313.272,248.601 313.5,249C 312.376,249.249 311.376,249.749 310.5,250.5C 311.127,251.417 311.461,252.417 311.5,253.5C 310.659,255.379 310.325,257.379 310.5,259.5C 310.5,262.167 310.5,264.833 310.5,267.5C 302.359,274.802 294.025,281.968 285.5,289C 275.555,298.776 265.889,308.609 256.5,318.5C 251.637,318.181 246.97,318.514 242.5,319.5C 239.844,321.598 237.511,324.098 235.5,327C 233.323,328.202 230.989,328.702 228.5,328.5C 221.048,328.848 213.714,328.182 206.5,326.5C 204.954,325.364 203.121,324.698 201,324.5C 197.114,324.931 193.28,325.597 189.5,326.5C 189.548,330.075 187.881,332.409 184.5,333.5C 183.348,339.596 183.848,345.596 186,351.5C 189.135,360.823 185.969,366.156 176.5,367.5C 175.167,367.5 173.833,367.5 172.5,367.5C 172.5,371.167 172.5,374.833 172.5,378.5C 170.876,381.654 168.209,383.321 164.5,383.5C 157.963,383.586 151.63,384.253 145.5,385.5C 140.5,385.5 135.5,385.5 130.5,385.5C 125.731,384.111 120.731,383.444 115.5,383.5C 113.095,382.232 110.428,381.565 107.5,381.5C 106.504,381.586 105.671,381.252 105,380.5C 102.545,374.677 100.712,368.677 99.5,362.5C 99.7406,360.102 99.0739,358.102 97.5,356.5C 96.1851,352.916 95.0184,349.249 94,345.5C 89.6554,346.71 85.4888,346.376 81.5,344.5C 79.4855,343.076 77.1522,342.41 74.5,342.5C 66.7121,339.439 59.0454,336.106 51.5,332.5C 51.0269,331.094 50.0269,330.427 48.5,330.5C 46.5956,330.262 45.2623,329.262 44.5,327.5C 44.9213,319.589 44.2546,311.923 42.5,304.5C 30.1693,294.179 20.5026,281.846 13.5,267.5C 14.0138,265.488 14.1805,263.488 14,261.5C 13.6667,261.833 13.3333,262.167 13,262.5C 11.6316,259.041 9.79827,256.041 7.5,253.5C 5.39415,249.509 4.06082,245.176 3.5,240.5C 3.43487,237.572 2.7682,234.905 1.5,232.5C 0.934566,230.048 0.2679,227.715 -0.5,225.5C -0.5,216.833 -0.5,208.167 -0.5,199.5C 0.971511,195.081 1.63818,190.414 1.5,185.5C 1.5,185.167 1.5,184.833 1.5,184.5C 2.7682,182.095 3.43487,179.428 3.5,176.5C 3.5,176.167 3.5,175.833 3.5,175.5C 5.47249,172.916 6.47249,169.916 6.5,166.5C 8.63982,157.724 12.3065,149.724 17.5,142.5C 18.9063,142.027 19.573,141.027 19.5,139.5C 24.2892,130.035 30.9558,122.035 39.5,115.5C 41.7157,114.797 43.549,113.464 45,111.5C 45.4983,108.183 45.665,104.85 45.5,101.5C 46.9238,99.4855 47.5905,97.1522 47.5,94.5C 48.7684,90.2329 51.4351,87.2329 55.5,85.5C 57.9689,84.3933 58.9689,82.3933 58.5,79.5C 59.9063,79.0269 60.573,78.0269 60.5,76.5C 60.7376,74.5956 61.7376,73.2623 63.5,72.5C 64.8333,71.8333 65.8333,70.8333 66.5,69.5C 67.2899,68.2058 68.2899,67.0391 69.5,66C 81.9925,57.0016 95.6591,50.5016 110.5,46.5C 113.152,46.5905 115.485,45.9238 117.5,44.5C 130.337,41.6804 143.004,42.0137 155.5,45.5 Z"/></g>
<g><path style="opacity:1" fill="#6d6c6e" d="M 93.5,64.5 C 89.3328,69.5051 85.3328,74.6718 81.5,80C 78.5184,80.498 75.5184,80.6646 72.5,80.5C 77.7401,72.9351 84.7401,67.6017 93.5,64.5 Z"/></g>
<g><path style="opacity:1" fill="#d4d1d0" d="M 93.5,64.5 C 84.7401,67.6017 77.7401,72.9351 72.5,80.5C 69.702,81.1 67.0354,82.1 64.5,83.5C 64.1667,83.1667 63.8333,82.8333 63.5,82.5C 72.9855,69.3507 85.6522,61.0173 101.5,57.5C 101.5,58.5 101.5,59.5 101.5,60.5C 98.632,61.3527 95.9653,62.686 93.5,64.5 Z"/></g>
<g><path style="opacity:1" fill="#edd3b5" d="M 171.5,61.5 C 179,66.8335 185.333,73.3335 190.5,81C 187.5,81.3333 184.5,81.6667 181.5,82C 178.291,83.583 177.124,86.083 178,89.5C 189.001,86.5033 196.668,90.5033 201,101.5C 205.445,128.097 202.445,153.764 192,178.5C 187.691,186.285 182.524,193.452 176.5,200C 152.034,217.393 129.867,214.893 110,192.5C 106.333,187.5 102.667,182.5 99,177.5C 99.1403,181.807 100.474,185.807 103,189.5C 108.833,196.667 115.333,203.167 122.5,209C 118.113,208.652 114.447,209.986 111.5,213C 106.556,213.873 101.89,213.373 97.5,211.5C 97.9382,211.565 98.2716,211.399 98.5,211C 93.2404,206.308 89.0737,200.808 86,194.5C 82.2334,184.433 79.5667,174.1 78,163.5C 77.6667,163.167 77.3333,162.833 77,162.5C 76.9504,164.744 76.1171,166.411 74.5,167.5C 75.3007,165.958 75.634,164.292 75.5,162.5C 74.1266,162.343 72.7932,162.51 71.5,163C 67.6733,166.737 63.34,167.404 58.5,165C 48.555,156.711 45.7216,146.545 50,134.5C 56.437,126.141 63.437,125.475 71,132.5C 72.7585,135.608 73.5919,138.941 73.5,142.5C 77.0543,142.85 80.3876,142.184 83.5,140.5C 83.8333,139 84.1667,137.5 84.5,136C 83.18,130.232 82.18,124.399 81.5,118.5C 83.5927,108.943 84.9261,99.2761 85.5,89.5C 86.3138,91.631 86.8138,93.9644 87,96.5C 100.093,70.6919 121.26,58.3585 150.5,59.5C 157.407,59.063 164.074,60.063 170.5,62.5C 171.107,62.3764 171.44,62.0431 171.5,61.5 Z"/></g>
<g><path style="opacity:1" fill="#f2dfc9" d="M 171.5,61.5 C 171.44,62.0431 171.107,62.3764 170.5,62.5C 164.074,60.063 157.407,59.063 150.5,59.5C 121.26,58.3585 100.093,70.6919 87,96.5C 86.8138,93.9644 86.3138,91.631 85.5,89.5C 85.4139,87.323 84.7472,85.323 83.5,83.5C 89.4676,73.6656 97.4676,65.8322 107.5,60C 118.927,51.8618 131.594,49.1951 145.5,52C 154.672,53.8895 163.338,57.0561 171.5,61.5 Z"/></g>
<g><path style="opacity:1" fill="#ecd253" d="M 339.5,78.5 C 354.024,78.0483 367.69,81.5483 380.5,89C 385.047,92.7614 389.714,96.2614 394.5,99.5C 391.526,102.138 388.526,104.805 385.5,107.5C 381.394,104.571 377.394,101.404 373.5,98C 362.33,91.9305 350.33,89.0971 337.5,89.5C 334.438,89.1558 331.438,88.4891 328.5,87.5C 331.915,84.0751 335.581,81.0751 339.5,78.5 Z"/></g>
<g><path style="opacity:1" fill="#272323" d="M 120.5,83.5 C 123.893,83.0617 126.893,83.8951 129.5,86C 130.38,87.3561 130.714,88.8561 130.5,90.5C 120.128,89.6863 112.794,94.0196 108.5,103.5C 107.998,104.521 107.332,104.688 106.5,104C 105.227,99.7932 106.061,95.9599 109,92.5C 112.449,88.8766 116.283,85.8766 120.5,83.5 Z"/></g>
<g><path style="opacity:1" fill="#e8e371" d="M 305.5,96.5 C 297.59,96.5606 291.424,100.227 287,107.5C 281.158,128.478 288.991,140.811 310.5,144.5C 320.055,143.73 327.388,139.396 332.5,131.5C 332.666,135.846 332.499,140.179 332,144.5C 319.358,152.842 306.191,153.675 292.5,147C 276.604,135.024 272.604,119.857 280.5,101.5C 282.38,101.771 283.713,101.104 284.5,99.5C 291.921,93.6104 299.588,87.9437 307.5,82.5C 307.833,83 308.167,83.5 308.5,84C 307.543,88.3103 306.543,92.477 305.5,96.5 Z"/></g>
<g><path style="opacity:1" fill="#6d6c6e" d="M 79.5,86.5 C 78.6366,102.74 78.6366,119.073 79.5,135.5C 75.143,123.488 66.8097,119.155 54.5,122.5C 52.4635,103.552 60.7969,92.552 79.5,89.5C 79.5,88.5 79.5,87.5 79.5,86.5 Z"/></g>
<g><path style="opacity:1" fill="#7f7d7e" d="M 202.5,88.5 C 204.41,91.4525 205.41,94.7858 205.5,98.5C 203.723,95.4954 202.723,92.1621 202.5,88.5 Z"/></g>
<g><path style="opacity:1" fill="#ddae89" d="M 302.5,45.5 C 302.791,46.6491 303.624,47.3158 305,47.5C 311.354,47.3961 317.021,49.0628 322,52.5C 322.29,54.0441 322.956,55.3774 324,56.5C 324.187,63.0809 324.687,69.5809 325.5,76C 324.577,78.0408 324.244,80.2075 324.5,82.5C 321.268,85.5659 318.601,89.0659 316.5,93C 318.791,95.3086 321.457,96.8086 324.5,97.5C 323.366,99.9664 323.199,102.633 324,105.5C 325.11,107.037 326.61,107.703 328.5,107.5C 324.51,109.587 320.177,110.92 315.5,111.5C 313.272,100.83 314.605,90.6633 319.5,81C 319.138,75.8796 317.804,71.0462 315.5,66.5C 316.532,64.3832 316.532,62.2165 315.5,60C 313.123,54.8392 309.123,53.1725 303.5,55C 304.5,55.3333 305.5,55.6667 306.5,56C 302.967,56.2432 299.633,55.7432 296.5,54.5C 298.265,51.2911 300.265,48.2911 302.5,45.5 Z"/></g>
<g><path style="opacity:1" fill="#d79e6f" d="M 414.5,89.5 C 416.407,104.258 414.074,118.258 407.5,131.5C 403.199,135.966 398.699,140.3 394,144.5C 396.778,135.013 400.278,125.68 404.5,116.5C 403.374,114.208 401.54,112.875 399,112.5C 394.406,114.253 389.906,116.253 385.5,118.5C 395.5,109.167 405.167,99.5 414.5,89.5 Z"/></g>
<g><path style="opacity:1" fill="#f0ea72" d="M 305.5,96.5 C 304.093,105.868 302.427,115.201 300.5,124.5C 300.833,125.167 301.167,125.833 301.5,126.5C 310.631,122.266 319.964,118.599 329.5,115.5C 330.5,115.5 331.5,115.5 332.5,115.5C 332.5,120.833 332.5,126.167 332.5,131.5C 327.388,139.396 320.055,143.73 310.5,144.5C 288.991,140.811 281.158,128.478 287,107.5C 291.424,100.227 297.59,96.5606 305.5,96.5 Z"/></g>
<g><path style="opacity:1" fill="#eacdb4" d="M 324.5,97.5 C 332.796,99.1568 341.129,100.657 349.5,102C 346.75,107.333 344.416,112.833 342.5,118.5C 341.834,115.311 341.167,111.977 340.5,108.5C 336.634,106.325 332.634,105.992 328.5,107.5C 326.61,107.703 325.11,107.037 324,105.5C 323.199,102.633 323.366,99.9664 324.5,97.5 Z"/></g>
<g><path style="opacity:1" fill="#959394" d="M 47.5,94.5 C 47.5905,97.1522 46.9238,99.4855 45.5,101.5C 45.4095,98.8478 46.0762,96.5145 47.5,94.5 Z"/></g>
<g><path style="opacity:1" fill="#d0cdcc" d="M 79.5,86.5 C 79.5,87.5 79.5,88.5 79.5,89.5C 60.7969,92.552 52.4635,103.552 54.5,122.5C 47.8168,102.948 55.1502,90.615 76.5,85.5C 77.7261,85.5195 78.7261,85.8529 79.5,86.5 Z"/></g>
<g><path style="opacity:1" fill="#e4c23f" d="M 337.5,89.5 C 350.33,89.0971 362.33,91.9305 373.5,98C 377.394,101.404 381.394,104.571 385.5,107.5C 382.585,110.959 379.252,113.959 375.5,116.5C 374.128,112.954 371.795,110.12 368.5,108C 364.367,106.281 360.7,104.114 357.5,101.5C 358.117,99.3198 359.117,97.3198 360.5,95.5C 360.167,95.1667 359.833,94.8333 359.5,94.5C 352.1,92.5567 344.767,90.89 337.5,89.5 Z"/></g>
<g><path style="opacity:1" fill="#757373" d="M 45.5,101.5 C 45.665,104.85 45.4983,108.183 45,111.5C 43.549,113.464 41.7157,114.797 39.5,115.5C 40.7927,113.704 42.2927,112.037 44,110.5C 44.1805,107.305 44.6805,104.305 45.5,101.5 Z"/></g>
<g><path style="opacity:1" fill="#8b8889" d="M 205.5,98.5 C 206.816,104.32 207.816,110.32 208.5,116.5C 207.883,116.389 207.383,116.056 207,115.5C 206.096,109.865 205.596,104.198 205.5,98.5 Z"/></g>
<g><path style="opacity:1" fill="#8e8b8a" d="M 448.5,108.5 C 448.785,111.829 448.118,114.829 446.5,117.5C 446.215,114.171 446.882,111.171 448.5,108.5 Z"/></g>
<g><path style="opacity:1" fill="#deb128" d="M 357.5,101.5 C 360.7,104.114 364.367,106.281 368.5,108C 371.795,110.12 374.128,112.954 375.5,116.5C 373.105,119.861 370.105,122.528 366.5,124.5C 362.015,121.756 357.348,119.256 352.5,117C 351.748,116.329 351.414,115.496 351.5,114.5C 353.264,109.978 355.264,105.645 357.5,101.5 Z"/></g>
<g><path style="opacity:0.71" fill="#868381" d="M 267.5,112.5 C 268.989,116.236 269.656,120.236 269.5,124.5C 267.75,120.817 267.083,116.817 267.5,112.5 Z"/></g>
<g><path style="opacity:1" fill="#a4a2a2" d="M 212.5,120.5 C 214.262,121.262 215.262,122.596 215.5,124.5C 213.738,123.738 212.738,122.404 212.5,120.5 Z"/></g>
<g><path style="opacity:1" fill="#8c8a88" d="M 446.5,117.5 C 446.841,121.16 446.175,124.493 444.5,127.5C 444.322,123.878 444.989,120.544 446.5,117.5 Z"/></g>
<g><path style="opacity:1" fill="#292424" d="M 136.5,106.5 C 138.481,109.128 139.981,112.128 141,115.5C 151.449,128.113 148.282,133.613 131.5,132C 127.717,131.391 126.05,129.224 126.5,125.5C 132.021,125.946 137.355,125.446 142.5,124C 138.626,118.764 136.626,112.931 136.5,106.5 Z"/></g>
<g><path style="opacity:1" fill="#272323" d="M 190.5,105.5 C 194.059,110.939 197.392,116.606 200.5,122.5C 196.493,127.996 191.16,129.829 184.5,128C 182.845,126.556 182.178,124.722 182.5,122.5C 186.722,122.922 190.722,122.255 194.5,120.5C 191.937,115.813 190.604,110.813 190.5,105.5 Z"/></g>
<g><path style="opacity:1" fill="#c94343" d="M 41.5,145.5 C 40.6909,143.708 40.1909,141.708 40,139.5C 25.6216,155.925 16.2883,174.925 12,196.5C 10.2586,205.431 9.09196,214.431 8.5,223.5C 3.60039,183.532 15.6004,149.532 44.5,121.5C 44.8333,122.5 45.1667,123.5 45.5,124.5C 44.6373,127.233 43.4706,129.899 42,132.5C 41.501,136.821 41.3343,141.154 41.5,145.5 Z"/></g>
<g><path style="opacity:1" fill="#c9c46e" d="M 340.5,190.5 C 333.238,189.573 326.238,187.907 319.5,185.5C 345.397,182.779 363.563,169.445 374,145.5C 375.544,141.448 376.711,137.282 377.5,133C 377.43,132.235 377.097,131.735 376.5,131.5C 379.008,129.076 382.008,127.41 385.5,126.5C 386.496,126.586 387.329,126.252 388,125.5C 385.331,156.856 369.497,178.523 340.5,190.5 Z"/></g>
<g><path style="opacity:1" fill="#8c8988" d="M 269.5,124.5 C 270.924,126.515 271.59,128.848 271.5,131.5C 269.837,129.562 269.171,127.228 269.5,124.5 Z"/></g>
<g><path style="opacity:1" fill="#d39a0d" d="M 351.5,114.5 C 351.414,115.496 351.748,116.329 352.5,117C 357.348,119.256 362.015,121.756 366.5,124.5C 364.5,127.167 362.167,129.5 359.5,131.5C 353.97,135.187 348.137,138.52 342,141.5C 341.264,138.408 341.431,135.408 342.5,132.5C 345.13,126.251 348.13,120.251 351.5,114.5 Z"/></g>
<g><path style="opacity:1" fill="#ca3b35" d="M 207.5,127.5 C 235.423,158.806 244.923,195.14 236,236.5C 234.93,239.876 233.764,243.21 232.5,246.5C 228.185,241.216 224.351,235.55 221,229.5C 219.381,224.635 217.381,219.968 215,215.5C 209.429,209.258 203.262,203.758 196.5,199C 194.337,197.002 192.67,194.668 191.5,192C 202.221,171.911 207.554,150.411 207.5,127.5 Z"/></g>
<g><path style="opacity:1" fill="#b5b16c" d="M 417.5,143.5 C 415.796,146.256 414.463,149.256 413.5,152.5C 413.27,154.514 412.77,156.847 412,159.5C 408.437,167.391 404.604,175.057 400.5,182.5C 391.364,187.568 381.698,191.234 371.5,193.5C 385.858,181.799 396.025,167.133 402,149.5C 402.765,147.934 402.598,146.601 401.5,145.5C 408.798,137.702 416.298,130.035 424,122.5C 422.312,129.567 420.146,136.567 417.5,143.5 Z"/></g>
<g><path style="opacity:1" fill="#2a2525" d="M 57.5,133.5 C 65.5519,133.552 70.2185,137.552 71.5,145.5C 71.1667,146.833 70.8333,148.167 70.5,149.5C 69.3378,147.176 68.1711,144.842 67,142.5C 64.4781,139.674 62.4781,140.007 61,143.5C 60.6667,147.167 60.3333,150.833 60,154.5C 57.3921,149.754 56.8921,144.754 58.5,139.5C 56.7147,139.212 55.048,139.212 53.5,139.5C 54.4671,137.21 55.8004,135.21 57.5,133.5 Z"/></g>
<g><path style="opacity:1" fill="#dfda70" d="M 284.5,99.5 C 283.713,101.104 282.38,101.771 280.5,101.5C 272.604,119.857 276.604,135.024 292.5,147C 306.191,153.675 319.358,152.842 332,144.5C 332.499,140.179 332.666,135.846 332.5,131.5C 332.5,126.167 332.5,120.833 332.5,115.5C 331.5,115.5 330.5,115.5 329.5,115.5C 330.531,114.751 331.698,114.085 333,113.5C 333.167,127.512 333.667,141.512 334.5,155.5C 340.554,152.142 346.554,148.809 352.5,145.5C 353.043,145.56 353.376,145.893 353.5,146.5C 349.39,156.108 342.39,162.942 332.5,167C 321.203,171.52 309.536,172.686 297.5,170.5C 272.782,138.184 265.615,102.184 276,62.5C 278,75.1651 280,87.8317 282,100.5C 282.671,99.7476 283.504,99.4142 284.5,99.5 Z"/></g>
<g><path style="opacity:1" fill="#d3cf6f" d="M 376.5,131.5 C 377.097,131.735 377.43,132.235 377.5,133C 376.711,137.282 375.544,141.448 374,145.5C 363.563,169.445 345.397,182.779 319.5,185.5C 314.94,184.702 310.606,183.202 306.5,181C 303.137,177.748 300.137,174.248 297.5,170.5C 309.536,172.686 321.203,171.52 332.5,167C 342.39,162.942 349.39,156.108 353.5,146.5C 353.376,145.893 353.043,145.56 352.5,145.5C 360.136,140.344 368.136,135.677 376.5,131.5 Z"/></g>
<g><path style="opacity:0.071" fill="#b0aeae" d="M 452.5,135.5 C 450.118,138.548 447.452,141.215 444.5,143.5C 446.167,139.833 448.833,137.167 452.5,135.5 Z"/></g>
<g><path style="opacity:1" fill="#cb3b35" d="M 41.5,145.5 C 42.4935,158.296 48.4935,167.796 59.5,174C 61.1341,174.494 62.8008,174.66 64.5,174.5C 64.7751,181.492 66.9418,187.826 71,193.5C 71.6667,195.5 71.6667,197.5 71,199.5C 55.6314,208.345 40.6314,217.679 26,227.5C 25.4823,231.551 25.8157,235.551 27,239.5C 34.4887,255.806 39.6554,272.806 42.5,290.5C 42.1667,291.167 41.8333,291.833 41.5,292.5C 22.7405,273.311 11.7405,250.311 8.5,223.5C 9.09196,214.431 10.2586,205.431 12,196.5C 16.2883,174.925 25.6216,155.925 40,139.5C 40.1909,141.708 40.6909,143.708 41.5,145.5 Z"/></g>
<g><path style="opacity:1" fill="#a6a5a6" d="M 19.5,139.5 C 19.573,141.027 18.9063,142.027 17.5,142.5C 17.427,140.973 18.0937,139.973 19.5,139.5 Z"/></g>
<g><path style="opacity:1" fill="#edeeef" d="M 222.5,132.5 C 225.764,133.927 228.264,136.261 230,139.5C 231.139,143.112 232.806,146.446 235,149.5C 235.662,151.813 236.162,154.146 236.5,156.5C 231.837,148.508 227.17,140.508 222.5,132.5 Z"/></g>
<g><path style="opacity:1" fill="#292424" d="M 163.5,110.5 C 170.57,122.852 179.404,134.186 190,144.5C 190.737,149.195 189.57,153.361 186.5,157C 176.771,163.636 166.104,166.47 154.5,165.5C 152.163,161.515 151.996,157.515 154,153.5C 154.652,160.813 158.486,163.313 165.5,161C 171.478,159.451 177.145,157.118 182.5,154C 183.573,152.687 184.24,151.187 184.5,149.5C 179.891,143.05 175.058,136.717 170,130.5C 166.12,124.361 163.954,117.695 163.5,110.5 Z"/></g>
<g><path style="opacity:1" fill="#a9a66a" d="M 421.5,164.5 C 415.089,171.249 408.089,177.249 400.5,182.5C 404.604,175.057 408.437,167.391 412,159.5C 412.77,156.847 413.27,154.514 413.5,152.5C 413.435,152.938 413.601,153.272 414,153.5C 424.407,147.22 434.907,141.386 445.5,136C 438.041,145.959 430.041,155.459 421.5,164.5 Z"/></g>
<g><path style="opacity:0.22" fill="#a7a5a4" d="M 439.5,149.5 C 437.833,151.833 435.833,153.833 433.5,155.5C 434.5,152.5 436.5,150.5 439.5,149.5 Z"/></g>
<g><path style="opacity:1" fill="#c0bc6d" d="M 401.5,145.5 C 402.598,146.601 402.765,147.934 402,149.5C 396.025,167.133 385.858,181.799 371.5,193.5C 364.492,193.666 357.492,193.5 350.5,193C 346.962,192.465 343.628,191.632 340.5,190.5C 369.497,178.523 385.331,156.856 388,125.5C 387.329,126.252 386.496,126.586 385.5,126.5C 388.262,124.275 391.262,122.275 394.5,120.5C 394.833,121 395.167,121.5 395.5,122C 390.5,135.66 386.333,149.493 383,163.5C 389.009,157.325 395.175,151.325 401.5,145.5 Z"/></g>
<g><path style="opacity:0.433" fill="#a9a8a6" d="M 283.5,158.5 C 285.048,158.821 285.715,159.821 285.5,161.5C 284.599,160.71 283.932,159.71 283.5,158.5 Z"/></g>
<g><path style="opacity:1" fill="#efeeee" d="M 237.5,159.5 C 240.092,161.036 241.092,163.369 240.5,166.5C 239.264,164.351 238.264,162.018 237.5,159.5 Z"/></g>
<g><path style="opacity:1" fill="#9b9998" d="M 285.5,161.5 C 287.836,162.845 289.503,164.845 290.5,167.5C 288.164,166.155 286.497,164.155 285.5,161.5 Z"/></g>
<g><path style="opacity:1" fill="#f2e0c9" d="M 97.5,211.5 C 90.7955,211.229 85.6289,208.229 82,202.5C 75.8202,192.632 72.4869,181.966 72,170.5C 73.045,169.627 73.8783,168.627 74.5,167.5C 76.1171,166.411 76.9504,164.744 77,162.5C 77.3333,162.833 77.6667,163.167 78,163.5C 79.5667,174.1 82.2334,184.433 86,194.5C 89.0737,200.808 93.2404,206.308 98.5,211C 98.2716,211.399 97.9382,211.565 97.5,211.5 Z"/></g>
<g><path style="opacity:1" fill="#282324" d="M 192.5,161.5 C 193.239,161.369 193.906,161.536 194.5,162C 191.584,166.92 187.918,171.253 183.5,175C 179.747,176.989 175.747,177.822 171.5,177.5C 171.232,174.881 171.565,172.381 172.5,170C 179.825,168.498 186.492,165.665 192.5,161.5 Z"/></g>
<g><path style="opacity:0.098" fill="#a3a1a0" d="M 290.5,167.5 C 291.906,167.973 292.573,168.973 292.5,170.5C 291.094,170.027 290.427,169.027 290.5,167.5 Z"/></g>
<g><path style="opacity:1" fill="#828081" d="M 6.5,166.5 C 6.47249,169.916 5.47249,172.916 3.5,175.5C 3.92809,172.215 4.92809,169.215 6.5,166.5 Z"/></g>
<g><path style="opacity:1" fill="#ececec" d="M 240.5,167.5 C 244.771,173.005 246.438,179.338 245.5,186.5C 243.719,180.291 242.053,173.958 240.5,167.5 Z"/></g>
<g><path style="opacity:1" fill="#262122" d="M 136.5,166.5 C 139.979,168.122 143.645,169.289 147.5,170C 154.826,170.5 162.159,170.666 169.5,170.5C 169.5,173.167 169.5,175.833 169.5,178.5C 160.927,178.87 152.594,177.704 144.5,175C 140.93,172.932 138.263,170.099 136.5,166.5 Z"/></g>
<g><path style="opacity:0.118" fill="#8c8a88" d="M 292.5,171.5 C 295.5,172.5 297.5,174.5 298.5,177.5C 296.167,175.833 294.167,173.833 292.5,171.5 Z"/></g>
<g><path style="opacity:1" fill="#a09e9f" d="M 3.5,176.5 C 3.43487,179.428 2.7682,182.095 1.5,184.5C 1.29379,181.505 1.96046,178.838 3.5,176.5 Z"/></g>
<g><path style="opacity:0.965" fill="#a2a09f" d="M 301.5,181.5 C 302.738,181.81 302.738,182.31 301.5,183C 300.906,183.464 300.239,183.631 299.5,183.5C 299.833,182.5 300.5,181.833 301.5,181.5 Z"/></g>
<g><path style="opacity:1" fill="#2a2525" d="M 131.5,174.5 C 132.978,174.238 134.311,174.571 135.5,175.5C 137.783,179.488 141.116,182.321 145.5,184C 154.794,185.055 164.127,185.888 173.5,186.5C 172.076,188.718 170.076,190.218 167.5,191C 159.334,193.243 151.334,192.91 143.5,190C 138.878,185.225 134.878,180.058 131.5,174.5 Z"/></g>
<g><path style="opacity:0.078" fill="#b9b7b6" d="M 408.5,181.5 C 407.674,183.264 406.341,184.598 404.5,185.5C 404.894,183.29 406.227,181.957 408.5,181.5 Z"/></g>
<g><path style="opacity:1" fill="#90a364" d="M 302.5,185.5 C 308.221,187.348 308.555,189.515 303.5,192C 301.833,192.667 300.167,192.667 298.5,192C 297.549,191.282 297.383,190.449 298,189.5C 299.992,188.672 301.492,187.339 302.5,185.5 Z"/></g>
<g><path style="opacity:0.247" fill="#d0cfcf" d="M 403.5,185.5 C 403.027,186.906 402.027,187.573 400.5,187.5C 400.973,186.094 401.973,185.427 403.5,185.5 Z"/></g>
<g><path style="opacity:1" fill="#acaaa9" d="M 292.5,187.5 C 291.167,188.833 291.167,190.167 292.5,191.5C 291.414,191.38 290.747,190.713 290.5,189.5C 290.747,188.287 291.414,187.62 292.5,187.5 Z"/></g>
<g><path style="opacity:0.298" fill="#bfbebd" d="M 399.5,188.5 C 398.486,189.674 397.153,190.34 395.5,190.5C 396.287,188.896 397.62,188.229 399.5,188.5 Z"/></g>
<g><path style="opacity:0.333" fill="#fefffe" d="M 250.5,194.5 C 251.833,195.167 251.833,195.167 250.5,194.5 Z"/></g>
<g><path style="opacity:0.129" fill="#c4c3c2" d="M 292.5,192.5 C 293.906,192.973 294.573,193.973 294.5,195.5C 293.094,195.027 292.427,194.027 292.5,192.5 Z"/></g>
<g><path style="opacity:1" fill="#8c9189" d="M 387.5,194.5 C 386.5,195.167 385.5,195.833 384.5,196.5C 383.209,196.263 382.209,196.596 381.5,197.5C 379.167,197.5 376.833,197.5 374.5,197.5C 378.68,196.269 383.014,195.269 387.5,194.5 Z"/></g>
<g><path style="opacity:1" fill="#ececec" d="M 337.5,199.5 C 309.167,199.5 280.833,199.5 252.5,199.5C 252.5,198.833 252.167,198.5 251.5,198.5C 266.658,197.504 281.991,197.17 297.5,197.5C 299.338,196.898 301.171,196.565 303,196.5C 314.758,197.322 326.591,197.822 338.5,198C 337.944,198.383 337.611,198.883 337.5,199.5 Z"/></g>
<g><path style="opacity:1" fill="#929091" d="M 1.5,185.5 C 1.63818,190.414 0.971511,195.081 -0.5,199.5C -0.5,196.833 -0.5,194.167 -0.5,191.5C 0.166667,189.5 0.833333,187.5 1.5,185.5 Z"/></g>
<g><path style="opacity:1" fill="#787777" d="M 252.5,199.5 C 280.833,199.5 309.167,199.5 337.5,199.5C 336.833,200.833 335.833,201.833 334.5,202.5C 333.551,201.848 332.385,201.514 331,201.5C 329.319,201.608 328.152,202.275 327.5,203.5C 325.797,202.34 325.131,203.007 325.5,205.5C 327.415,205.216 329.081,205.549 330.5,206.5C 328.5,206.5 326.5,206.5 324.5,206.5C 324.5,204.833 324.5,203.167 324.5,201.5C 320.298,201.183 316.298,201.517 312.5,202.5C 311.833,202.5 311.167,202.5 310.5,202.5C 291.167,201.833 271.833,201.167 252.5,200.5C 252.5,200.167 252.5,199.833 252.5,199.5 Z"/></g>
<g><path style="opacity:1" fill="#5d5e5d" d="M 385.5,197.5 C 385.611,198.117 385.944,198.617 386.5,199C 413.165,199.5 439.831,199.667 466.5,199.5C 439.672,200.498 412.672,200.831 385.5,200.5C 385.5,199.833 385.167,199.5 384.5,199.5C 384.328,198.508 384.662,197.842 385.5,197.5 Z"/></g>
<g><path style="opacity:1" fill="#868485" d="M 466.5,199.5 C 466.833,199.5 467.167,199.5 467.5,199.5C 467.5,200.167 467.833,200.5 468.5,200.5C 468.5,201.167 468.167,201.5 467.5,201.5C 467.167,201.5 466.833,201.5 466.5,201.5C 444.425,201.178 422.425,201.511 400.5,202.5C 399.5,201.167 398.5,201.167 397.5,202.5C 394.609,201.597 391.609,201.264 388.5,201.5C 387.504,201.414 386.671,201.748 386,202.5C 385.536,201.906 385.369,201.239 385.5,200.5C 412.672,200.831 439.672,200.498 466.5,199.5 Z"/></g>
<g><path style="opacity:1" fill="#b3b2b2" d="M 245.5,189.5 C 246.972,195.601 247.639,201.935 247.5,208.5C 247.639,215.065 246.972,221.399 245.5,227.5C 246.833,214.833 246.833,202.167 245.5,189.5 Z"/></g>
<g><path style="opacity:1" fill="#c4c9c6" d="M 334.5,202.5 C 334.038,203.88 333.038,204.547 331.5,204.5C 330.151,204.154 328.817,203.821 327.5,203.5C 328.152,202.275 329.319,201.608 331,201.5C 332.385,201.514 333.551,201.848 334.5,202.5 Z"/></g>
<g><path style="opacity:1" fill="#487087" d="M 208.5,226.5 C 201.833,222.167 195.167,217.833 188.5,213.5C 186.72,209.101 183.386,206.934 178.5,207C 181.128,205.374 183.461,203.374 185.5,201C 186.167,200.333 186.833,200.333 187.5,201C 194.031,207.865 200.864,214.365 208,220.5C 208.495,222.473 208.662,224.473 208.5,226.5 Z"/></g>
<g><path style="opacity:1" fill="#e2e2e2" d="M 251.5,200.5 C 251.833,200.5 252.167,200.5 252.5,200.5C 271.833,201.167 291.167,201.833 310.5,202.5C 306.511,207.821 302.178,212.821 297.5,217.5C 297.389,216.883 297.056,216.383 296.5,216C 283.344,214.437 270.677,211.104 258.5,206C 255.931,204.241 253.597,202.407 251.5,200.5 Z"/></g>
<g><path style="opacity:1" fill="#d9d9d8" d="M 330.5,206.5 C 331.497,206.47 332.164,206.97 332.5,208C 331.071,211.594 328.738,214.427 325.5,216.5C 321.688,215.676 317.688,215.176 313.5,215C 315.125,214.147 315.458,213.147 314.5,212C 311.639,211.8 308.972,211.633 306.5,211.5C 309.31,209.026 311.31,206.026 312.5,202.5C 316.298,201.517 320.298,201.183 324.5,201.5C 324.5,203.167 324.5,204.833 324.5,206.5C 326.5,206.5 328.5,206.5 330.5,206.5 Z"/></g>
<g><path style="opacity:1" fill="#e2e2e2" d="M 466.5,201.5 C 466.5,201.833 466.5,202.167 466.5,202.5C 464.276,205.624 461.276,207.791 457.5,209C 450.386,211.779 443.053,213.612 435.5,214.5C 417.26,214.528 398.927,214.528 380.5,214.5C 387.005,212.836 393.172,210.169 399,206.5C 399.791,205.255 400.291,203.922 400.5,202.5C 422.425,201.511 444.425,201.178 466.5,201.5 Z"/></g>
<g><path style="opacity:1" fill="#497189" d="M 83.5,216.5 C 70.4401,222.194 57.4401,228.194 44.5,234.5C 52.6769,262.249 56.1769,290.582 55,319.5C 54.7679,320.737 54.2679,321.737 53.5,322.5C 52.8501,322.196 52.1835,321.863 51.5,321.5C 50.9553,291 44.9553,261.666 33.5,233.5C 44.9226,223.278 57.5893,214.778 71.5,208C 73.1667,207.333 74.8333,207.333 76.5,208C 79.4234,210.416 81.7567,213.25 83.5,216.5 Z"/></g>
<g><path style="opacity:1" fill="#272626" d="M 384.5,199.5 C 385.167,199.5 385.5,199.833 385.5,200.5C 385.369,201.239 385.536,201.906 386,202.5C 386.671,201.748 387.504,201.414 388.5,201.5C 384.839,206.182 380.172,209.682 374.5,212C 375.167,212.167 375.833,212.333 376.5,212.5C 381.808,209.676 387.474,208.176 393.5,208C 395.928,206.982 397.262,205.148 397.5,202.5C 398.5,201.167 399.5,201.167 400.5,202.5C 400.291,203.922 399.791,205.255 399,206.5C 393.172,210.169 387.005,212.836 380.5,214.5C 376.016,214.426 371.683,215.093 367.5,216.5C 366.508,216.672 365.842,216.338 365.5,215.5C 370.307,211.591 375.64,208.424 381.5,206C 383.451,204.266 384.451,202.099 384.5,199.5 Z"/></g>
<g><path style="opacity:1" fill="#cfcece" d="M 388.5,201.5 C 391.609,201.264 394.609,201.597 397.5,202.5C 397.262,205.148 395.928,206.982 393.5,208C 387.474,208.176 381.808,209.676 376.5,212.5C 375.833,212.333 375.167,212.167 374.5,212C 380.172,209.682 384.839,206.182 388.5,201.5 Z"/></g>
<g><path style="opacity:1" fill="#0c0c0c" d="M 296.5,196.5 C 297.167,196.5 297.5,196.833 297.5,197.5C 281.991,197.17 266.658,197.504 251.5,198.5C 251.5,199.167 251.5,199.833 251.5,200.5C 253.597,202.407 255.931,204.241 258.5,206C 270.677,211.104 283.344,214.437 296.5,216C 297.056,216.383 297.389,216.883 297.5,217.5C 297.167,217.5 296.833,217.5 296.5,217.5C 287.862,215.739 279.195,213.905 270.5,212C 263.443,209.823 256.776,206.99 250.5,203.5C 250.5,201.167 250.5,198.833 250.5,196.5C 265.833,196.5 281.167,196.5 296.5,196.5 Z"/></g>
<g><path style="opacity:1" fill="#0b0b0b" d="M 381.5,197.5 C 382.209,196.596 383.209,196.263 384.5,196.5C 412.833,196.5 441.167,196.5 469.5,196.5C 469.662,198.527 469.495,200.527 469,202.5C 463.601,207.951 457.101,211.451 449.5,213C 419.179,222.332 388.179,225.832 356.5,223.5C 356.842,222.662 357.508,222.328 358.5,222.5C 378.281,223.205 397.947,222.205 417.5,219.5C 417.833,219.5 418.167,219.5 418.5,219.5C 424.431,218.454 430.098,216.788 435.5,214.5C 443.053,213.612 450.386,211.779 457.5,209C 461.276,207.791 464.276,205.624 466.5,202.5C 467.167,202.5 467.5,202.167 467.5,201.5C 468.167,201.5 468.5,201.167 468.5,200.5C 468.5,199.833 468.5,199.167 468.5,198.5C 441.005,197.502 413.338,197.169 385.5,197.5C 384.662,197.842 384.328,198.508 384.5,199.5C 383.5,198.833 382.5,198.167 381.5,197.5 Z"/></g>
<g><path style="opacity:1" fill="#dcdbdc" d="M 385.5,197.5 C 413.338,197.169 441.005,197.502 468.5,198.5C 467.833,198.5 467.5,198.833 467.5,199.5C 467.167,199.5 466.833,199.5 466.5,199.5C 439.831,199.667 413.165,199.5 386.5,199C 385.944,198.617 385.611,198.117 385.5,197.5 Z"/></g>
<g><path style="opacity:1" fill="#f0f0f0" d="M 380.5,214.5 C 398.927,214.528 417.26,214.528 435.5,214.5C 430.098,216.788 424.431,218.454 418.5,219.5C 418.167,218.167 417.833,218.167 417.5,219.5C 397.947,222.205 378.281,223.205 358.5,222.5C 361.328,220.252 364.328,218.252 367.5,216.5C 371.683,215.093 376.016,214.426 380.5,214.5 Z"/></g>
<g><path style="opacity:1" fill="#335060" d="M 188.5,213.5 C 195.167,217.833 201.833,222.167 208.5,226.5C 204.409,244.695 198.576,262.362 191,279.5C 190.25,280.126 189.416,280.626 188.5,281C 183.115,281.214 177.781,281.714 172.5,282.5C 171.592,281.21 171.759,279.877 173,278.5C 179.751,268 186.251,257.333 192.5,246.5C 190.512,244.691 189.178,242.524 188.5,240C 191.143,231.143 191.143,222.309 188.5,213.5 Z"/></g>
<g><path style="opacity:1" fill="#f7f6f7" d="M 374.5,197.5 C 376.833,197.5 379.167,197.5 381.5,197.5C 382.5,198.167 383.5,198.833 384.5,199.5C 384.451,202.099 383.451,204.266 381.5,206C 375.64,208.424 370.307,211.591 365.5,215.5C 351.221,223.643 336.888,231.81 322.5,240C 318.91,242.614 315.576,245.448 312.5,248.5C 310.801,248.66 309.134,248.494 307.5,248C 301.652,242.319 295.985,236.485 290.5,230.5C 295.886,224.122 301.219,217.789 306.5,211.5C 308.972,211.633 311.639,211.8 314.5,212C 315.458,213.147 315.125,214.147 313.5,215C 317.688,215.176 321.688,215.676 325.5,216.5C 324.71,217.794 323.71,218.961 322.5,220C 326.114,218.422 329.281,215.922 332,212.5C 334.482,205.851 338.649,200.518 344.5,196.5C 348.597,196.866 350.93,199.032 351.5,203C 350.418,207.247 348.751,211.247 346.5,215C 346.833,215.167 347.167,215.333 347.5,215.5C 348.92,213.78 350.253,211.946 351.5,210C 359.232,205.803 366.899,201.637 374.5,197.5 Z"/></g>
<g><path style="opacity:1" fill="#c3cac5" d="M 360.5,202.5 C 358.228,203.319 355.894,203.985 353.5,204.5C 353.5,203.5 353.5,202.5 353.5,201.5C 356.059,201.198 358.393,201.532 360.5,202.5 Z"/></g>
<g><path style="opacity:1" fill="#888887" d="M 360.5,202.5 C 358.393,201.532 356.059,201.198 353.5,201.5C 353.5,202.5 353.5,203.5 353.5,204.5C 352.539,202.735 352.205,200.735 352.5,198.5C 356.884,198.174 361.217,198.508 365.5,199.5C 364.312,201.262 362.645,202.262 360.5,202.5 Z"/></g>
<g><path style="opacity:1" fill="#e2e1e1" d="M 91.5,214.5 C 97.2684,216.297 103.268,216.964 109.5,216.5C 109.007,218.806 108.674,221.139 108.5,223.5C 104.59,223.737 100.923,222.904 97.5,221C 94.5914,219.594 92.5914,217.428 91.5,214.5 Z"/></g>
<g><path style="opacity:1" fill="#335060" d="M 83.5,216.5 C 91.3531,221.929 99.6864,226.596 108.5,230.5C 110.101,239.572 112.934,248.239 117,256.5C 117.956,257.894 119.289,258.561 121,258.5C 122.55,258.05 124.05,257.883 125.5,258C 122.182,260.795 120.682,264.295 121,268.5C 129.532,274.35 138.699,279.016 148.5,282.5C 131.777,283.341 115.111,284.674 98.5,286.5C 98.8314,277.808 98.498,269.141 97.5,260.5C 96.5197,259.019 95.353,257.685 94,256.5C 93.8091,258.708 93.3091,260.708 92.5,262.5C 92.8174,259.428 92.4841,256.428 91.5,253.5C 90.5224,253.977 89.6891,254.643 89,255.5C 89.3053,265.206 89.1386,274.873 88.5,284.5C 88.1667,284.833 87.8333,285.167 87.5,285.5C 84.8333,283.833 82.1667,282.167 79.5,280.5C 79.1667,281 78.8333,281.5 78.5,282C 79.7558,283.845 80.7558,285.845 81.5,288C 80.0082,289.885 78.0082,290.885 75.5,291C 74.7476,291.671 74.4142,292.504 74.5,293.5C 73.6236,293.369 72.9569,293.702 72.5,294.5C 74.0284,295.861 75.6951,297.028 77.5,298C 81.7901,298.923 86.1234,299.423 90.5,299.5C 92.1688,312.209 93.8355,324.876 95.5,337.5C 89.7037,337.534 84.0371,336.701 78.5,335C 69.7958,331.315 61.4625,327.148 53.5,322.5C 54.2679,321.737 54.7679,320.737 55,319.5C 56.1769,290.582 52.6769,262.249 44.5,234.5C 57.4401,228.194 70.4401,222.194 83.5,216.5 Z"/></g>
<g><path style="opacity:1" fill="#c94343" d="M 145.5,233.5 C 143.062,234.886 140.729,234.553 138.5,232.5C 137.833,230.167 137.167,227.833 136.5,225.5C 130.872,222.613 124.872,221.78 118.5,223C 118,223.5 117.5,224 117,224.5C 116.577,231.509 116.744,238.509 117.5,245.5C 114.09,240.634 112.757,235.134 113.5,229C 113.667,225.833 113.833,222.667 114,219.5C 116.455,215.012 119.955,214.178 124.5,217C 132.237,219.702 139.571,223.202 146.5,227.5C 146.167,227.833 145.833,228.167 145.5,228.5C 143.012,229.025 140.679,229.858 138.5,231C 141.104,231.39 143.438,232.224 145.5,233.5 Z"/></g>
<g><path style="opacity:1" fill="#dac2a6" d="M 158.5,214.5 C 160.527,214.338 162.527,214.505 164.5,215C 161.833,217 159.167,219 156.5,221C 150.759,222.307 145.759,220.973 141.5,217C 147.502,218.168 153.169,217.334 158.5,214.5 Z"/></g>
<g><path style="opacity:1" fill="#ca3d39" d="M 176.5,213.5 C 180.42,213.043 182.92,214.709 184,218.5C 185.536,224.749 185.87,231.083 185,237.5C 177.785,238.92 170.618,238.586 163.5,236.5C 163.5,233.833 163.5,231.167 163.5,228.5C 165.288,228.785 166.955,228.452 168.5,227.5C 166.5,226.833 164.5,226.167 162.5,225.5C 162.167,224.833 161.833,224.167 161.5,223.5C 166.393,219.895 171.393,216.562 176.5,213.5 Z"/></g>
<g><path style="opacity:1" fill="#cb3c36" d="M 145.5,233.5 C 146.649,233.791 147.316,234.624 147.5,236C 140.518,246.02 131.018,251.187 119,251.5C 118.187,249.564 117.687,247.564 117.5,245.5C 116.744,238.509 116.577,231.509 117,224.5C 117.5,224 118,223.5 118.5,223C 124.872,221.78 130.872,222.613 136.5,225.5C 137.167,227.833 137.833,230.167 138.5,232.5C 140.729,234.553 143.062,234.886 145.5,233.5 Z"/></g>
<g><path style="opacity:1" fill="#c53d39" d="M 151.5,225.5 C 157,224.831 159.167,227.165 158,232.5C 155.939,235.775 153.606,236.108 151,233.5C 150.278,230.739 150.445,228.073 151.5,225.5 Z"/></g>
<g><path style="opacity:1" fill="#504d4d" d="M 365.5,215.5 C 365.842,216.338 366.508,216.672 367.5,216.5C 364.328,218.252 361.328,220.252 358.5,222.5C 357.508,222.328 356.842,222.662 356.5,223.5C 345.189,230.826 333.523,237.66 321.5,244C 317.639,246.696 314.306,249.863 311.5,253.5C 311.461,252.417 311.127,251.417 310.5,250.5C 311.376,249.749 312.376,249.249 313.5,249C 313.272,248.601 312.938,248.435 312.5,248.5C 315.576,245.448 318.91,242.614 322.5,240C 336.888,231.81 351.221,223.643 365.5,215.5 Z"/></g>
<g><path style="opacity:1" fill="#edecec" d="M 281.5,232.5 C 282.552,232.351 283.552,232.517 284.5,233C 292.853,240.361 300.686,247.861 308,255.5C 306.737,257.797 304.903,258.63 302.5,258C 294.667,251.5 287.5,244.333 281,236.5C 280.421,235.072 280.588,233.738 281.5,232.5 Z"/></g>
<g><path style="opacity:1" fill="#bcbbbb" d="M 1.5,232.5 C 2.7682,234.905 3.43487,237.572 3.5,240.5C 1.96046,238.162 1.29379,235.495 1.5,232.5 Z"/></g>
<g><path style="opacity:1" fill="#497188" d="M 279.5,244.5 C 279.657,245.873 279.49,247.207 279,248.5C 268.871,260.967 257.205,271.634 244,280.5C 237.722,276.556 232.388,271.556 228,265.5C 223.333,259.5 218.667,253.5 214,247.5C 212.991,245.975 212.491,244.308 212.5,242.5C 213.151,237.487 213.984,232.487 215,227.5C 216.66,232.157 218.327,236.823 220,241.5C 225.667,249.5 231.333,257.5 237,265.5C 239.766,268.981 243.266,270.481 247.5,270C 257.018,259.983 266.351,249.817 275.5,239.5C 277.071,240.975 278.405,242.642 279.5,244.5 Z"/></g>
<g><path style="opacity:1" fill="#d1cecd" d="M 168.5,258.5 C 170.478,250.276 167.478,245.276 159.5,243.5C 156.935,243.899 155.601,245.399 155.5,248C 156.574,252.316 158.074,256.483 160,260.5C 160.278,259.584 160.778,258.918 161.5,258.5C 161.433,259.959 161.766,261.292 162.5,262.5C 161.599,263.29 160.932,264.29 160.5,265.5C 157.217,258.273 153.384,251.273 149,244.5C 148.333,243.5 148.333,242.5 149,241.5C 152.351,240.628 155.685,239.628 159,238.5C 162.088,240.789 165.588,242.123 169.5,242.5C 169.821,248.026 169.488,253.36 168.5,258.5 Z"/></g>
<g><path style="opacity:1" fill="#8c8a8a" d="M 271.5,235.5 C 267.227,241.442 262.227,246.776 256.5,251.5C 260.773,245.558 265.773,240.224 271.5,235.5 Z"/></g>
<g><path style="opacity:1" fill="#b4b3b3" d="M 243.5,238.5 C 243.435,241.428 242.768,244.095 241.5,246.5C 241.294,243.505 241.96,240.838 243.5,238.5 Z"/></g>
<g><path style="opacity:1" fill="#f1f0f0" d="M 168.5,258.5 C 168.241,264.908 167.407,271.241 166,277.5C 163.491,273.806 161.658,269.806 160.5,265.5C 160.932,264.29 161.599,263.29 162.5,262.5C 163.5,262.5 164.5,262.5 165.5,262.5C 165.5,260.833 165.5,259.167 165.5,257.5C 163.901,257.232 162.568,257.566 161.5,258.5C 160.778,258.918 160.278,259.584 160,260.5C 158.074,256.483 156.574,252.316 155.5,248C 155.601,245.399 156.935,243.899 159.5,243.5C 167.478,245.276 170.478,250.276 168.5,258.5 Z"/></g>
<g><path style="opacity:1" fill="#7ca8bb" d="M 173.5,242.5 C 179.76,241.519 184.426,243.686 187.5,249C 181.965,259.238 175.799,269.071 169,278.5C 171.293,266.615 172.793,254.615 173.5,242.5 Z"/></g>
<g><path style="opacity:1" fill="#282525" d="M 159.5,245.5 C 163.161,245.35 164.161,246.85 162.5,250C 158.707,250.487 157.707,248.987 159.5,245.5 Z"/></g>
<g><path style="opacity:1" fill="#335060" d="M 212.5,242.5 C 212.491,244.308 212.991,245.975 214,247.5C 218.667,253.5 223.333,259.5 228,265.5C 232.388,271.556 237.722,276.556 244,280.5C 257.205,271.634 268.871,260.967 279,248.5C 279.49,247.207 279.657,245.873 279.5,244.5C 286.484,251.759 293.484,259.092 300.5,266.5C 284.076,280.088 268.743,294.922 254.5,311C 250.459,311.827 246.459,311.66 242.5,310.5C 243.724,297.66 240.724,285.826 233.5,275C 227.993,271.62 221.993,270.62 215.5,272C 209.886,273.482 204.553,275.649 199.5,278.5C 198.386,277.277 198.219,275.944 199,274.5C 203.828,263.859 208.328,253.193 212.5,242.5 Z"/></g>
<g><path style="opacity:1" fill="#7eabbe" d="M 142.5,246.5 C 145.835,248.68 148.335,251.68 150,255.5C 153.5,263.167 157,270.833 160.5,278.5C 148.545,276.289 137.378,271.622 127,264.5C 127.032,262.402 127.699,260.402 129,258.5C 133.102,253.896 137.602,249.896 142.5,246.5 Z"/></g>
<g><path style="opacity:1" fill="#848182" d="M 252.5,255.5 C 251.04,257.463 249.373,259.296 247.5,261C 246.563,261.692 245.897,261.525 245.5,260.5C 247.573,258.42 249.907,256.754 252.5,255.5 Z"/></g>
<g><path style="opacity:1" fill="#5e5b5b" d="M 7.5,253.5 C 9.79827,256.041 11.6316,259.041 13,262.5C 13.3333,262.167 13.6667,261.833 14,261.5C 14.1805,263.488 14.0138,265.488 13.5,267.5C 10.5422,263.309 8.54224,258.642 7.5,253.5 Z"/></g>
<g><path style="opacity:1" fill="#487088" d="M 98.5,286.5 C 96.6089,287.536 94.7755,287.536 93,286.5C 92.5003,278.507 92.3336,270.507 92.5,262.5C 93.3091,260.708 93.8091,258.708 94,256.5C 95.353,257.685 96.5197,259.019 97.5,260.5C 98.498,269.141 98.8314,277.808 98.5,286.5 Z"/></g>
<g><path style="opacity:1" fill="#232020" d="M 162.5,262.5 C 161.766,261.292 161.433,259.959 161.5,258.5C 162.568,257.566 163.901,257.232 165.5,257.5C 165.5,259.167 165.5,260.833 165.5,262.5C 164.5,262.5 163.5,262.5 162.5,262.5 Z"/></g>
<g><path style="opacity:1" fill="#868384" d="M 310.5,259.5 C 312.972,262.214 312.972,264.881 310.5,267.5C 310.5,264.833 310.5,262.167 310.5,259.5 Z"/></g>
<g><path style="opacity:1" fill="#f7f7f7" d="M 234.5,296.5 C 233.95,301.697 232.617,306.697 230.5,311.5C 221.219,311.772 211.886,311.772 202.5,311.5C 201.827,304.463 200.827,297.463 199.5,290.5C 199.623,289.075 199.957,287.742 200.5,286.5C 206.891,283.973 213.225,281.14 219.5,278C 224.519,277.259 228.353,279.092 231,283.5C 232.77,287.696 233.937,292.029 234.5,296.5 Z"/></g>
<g><path style="opacity:1" fill="#c4c3c3" d="M 152.5,290.5 C 139.482,290.339 126.482,290.673 113.5,291.5C 120.766,289.953 128.266,289.286 136,289.5C 141.677,289.501 147.177,289.834 152.5,290.5 Z"/></g>
<g><path style="opacity:1" fill="#fdfdfd" d="M 152.5,290.5 C 152.833,290.5 153.167,290.5 153.5,290.5C 155.127,310.641 156.627,330.974 158,351.5C 159.722,357.466 160.222,363.466 159.5,369.5C 153.482,372.384 147.482,375.051 141.5,377.5C 130.577,378.115 119.91,376.781 109.5,373.5C 101.668,347.346 96.3344,320.679 93.5,293.5C 100.115,292.365 106.782,291.698 113.5,291.5C 126.482,290.673 139.482,290.339 152.5,290.5 Z"/></g>
<g><path style="opacity:1" fill="#f6f6f6" d="M 194.5,303.5 C 194.817,306.572 194.484,309.572 193.5,312.5C 191.259,313.129 189.259,314.129 187.5,315.5C 185.68,306.948 184.347,298.281 183.5,289.5C 186.119,289.232 188.619,289.565 191,290.5C 192.863,294.649 194.03,298.982 194.5,303.5 Z"/></g>
<g><path style="opacity:1" fill="#d6d3d2" d="M 153.5,290.5 C 156.742,290.571 159.575,291.571 162,293.5C 163.754,320.484 165.254,347.484 166.5,374.5C 158.36,376.963 150.027,377.963 141.5,377.5C 147.482,375.051 153.482,372.384 159.5,369.5C 160.222,363.466 159.722,357.466 158,351.5C 156.627,330.974 155.127,310.641 153.5,290.5 Z"/></g>
<g><path style="opacity:1" fill="#487087" d="M 176.5,294.5 C 175.851,300.189 172.517,302.522 166.5,301.5C 166.5,297.833 166.5,294.167 166.5,290.5C 169.833,290.5 173.167,290.5 176.5,290.5C 176.5,291.833 176.5,293.167 176.5,294.5 Z"/></g>
<g><path style="opacity:1" fill="#312e2f" d="M 213.5,287.5 C 215.527,287.338 217.527,287.505 219.5,288C 214.779,291.027 209.779,293.527 204.5,295.5C 204.167,295.167 203.833,294.833 203.5,294.5C 206.32,291.333 209.653,288.999 213.5,287.5 Z"/></g>
<g><path style="opacity:1" fill="#486f86" d="M 74.5,293.5 C 79.1785,293.334 83.8452,293.501 88.5,294C 90.1922,295.401 90.8588,297.234 90.5,299.5C 86.1234,299.423 81.7901,298.923 77.5,298C 75.6951,297.028 74.0284,295.861 72.5,294.5C 72.9569,293.702 73.6236,293.369 74.5,293.5 Z"/></g>
<g><path style="opacity:1" fill="#33505f" d="M 176.5,294.5 C 178.593,304.972 179.259,315.639 178.5,326.5C 174.895,327.49 171.228,328.156 167.5,328.5C 166.782,319.518 166.448,310.518 166.5,301.5C 172.517,302.522 175.851,300.189 176.5,294.5 Z"/></g>
<g><path style="opacity:1" fill="#d4d1d0" d="M 200.5,286.5 C 199.957,287.742 199.623,289.075 199.5,290.5C 200.827,297.463 201.827,304.463 202.5,311.5C 211.886,311.772 221.219,311.772 230.5,311.5C 232.617,306.697 233.95,301.697 234.5,296.5C 241.161,316.641 233.828,325.808 212.5,324C 211.167,323.333 211.167,322.667 212.5,322C 216.54,321.091 220.54,320.091 224.5,319C 223.833,318.667 223.167,318.333 222.5,318C 215.16,317.628 207.827,317.795 200.5,318.5C 200.232,309.01 198.898,299.676 196.5,290.5C 196.848,288.152 198.182,286.818 200.5,286.5 Z"/></g>
<g><path style="opacity:1" fill="#252122" d="M 224.5,306.5 C 218.833,307.833 213.167,307.833 207.5,306.5C 213.023,305.289 218.69,305.289 224.5,306.5 Z"/></g>
<g><path style="opacity:1" fill="#353132" d="M 209.5,296.5 C 214.58,296.25 219.58,296.75 224.5,298C 218.838,299.368 213.171,299.535 207.5,298.5C 208.243,297.818 208.909,297.151 209.5,296.5 Z"/></g>
<g><path style="opacity:1" fill="#acaaaa" d="M 207.5,306.5 C 213.167,307.833 218.833,307.833 224.5,306.5C 225.376,306.369 226.043,306.702 226.5,307.5C 219.833,308.833 213.167,308.833 206.5,307.5C 206.624,306.893 206.957,306.56 207.5,306.5 Z"/></g>
<g><path style="opacity:1" fill="#d4d1d0" d="M 194.5,303.5 C 195.815,308.68 195.815,314.014 194.5,319.5C 192.271,320.577 189.937,321.244 187.5,321.5C 187.5,319.5 187.5,317.5 187.5,315.5C 189.259,314.129 191.259,313.129 193.5,312.5C 194.484,309.572 194.817,306.572 194.5,303.5 Z"/></g>
<g><path style="opacity:1" fill="#959393" d="M 42.5,304.5 C 44.2546,311.923 44.9213,319.589 44.5,327.5C 42.8679,320.063 42.2012,312.396 42.5,304.5 Z"/></g>
<g><path style="opacity:1" fill="#969495" d="M 242.5,319.5 C 246.97,318.514 251.637,318.181 256.5,318.5C 255.739,319.391 254.739,320.058 253.5,320.5C 249.906,319.574 246.24,319.241 242.5,319.5 Z"/></g>
<g><path style="opacity:1" fill="#908e8e" d="M 206.5,326.5 C 213.714,328.182 221.048,328.848 228.5,328.5C 223.015,329.652 217.349,329.818 211.5,329C 209.347,328.901 207.681,328.067 206.5,326.5 Z"/></g>
<g><path style="opacity:1" fill="#c6c4c5" d="M 48.5,330.5 C 50.0269,330.427 51.0269,331.094 51.5,332.5C 49.9731,332.573 48.9731,331.906 48.5,330.5 Z"/></g>
<g><path style="opacity:1" fill="#d2cfce" d="M 168.5,334.5 C 170.833,334.5 173.167,334.5 175.5,334.5C 176.771,339.111 177.937,343.778 179,348.5C 181.973,358.259 178.473,362.592 168.5,361.5C 168.5,352.5 168.5,343.5 168.5,334.5 Z"/></g>
<g><path style="opacity:1" fill="#868484" d="M 74.5,342.5 C 77.1522,342.41 79.4855,343.076 81.5,344.5C 78.8478,344.59 76.5145,343.924 74.5,342.5 Z"/></g>
<g><path style="opacity:1" fill="#a5a4a4" d="M 97.5,356.5 C 99.0739,358.102 99.7406,360.102 99.5,362.5C 98.2616,360.786 97.595,358.786 97.5,356.5 Z"/></g>
<g><path style="opacity:1" fill="#a19f9f" d="M 176.5,367.5 C 175.791,368.404 174.791,368.737 173.5,368.5C 173.232,371.119 173.565,373.619 174.5,376C 173.934,376.995 173.267,377.828 172.5,378.5C 172.5,374.833 172.5,371.167 172.5,367.5C 173.833,367.5 175.167,367.5 176.5,367.5 Z"/></g>
<g><path style="opacity:1" fill="#868485" d="M 107.5,381.5 C 110.428,381.565 113.095,382.232 115.5,383.5C 112.505,383.706 109.838,383.04 107.5,381.5 Z"/></g>
<g><path style="opacity:1" fill="#979696" d="M 115.5,383.5 C 120.731,383.444 125.731,384.111 130.5,385.5C 127.5,385.5 124.5,385.5 121.5,385.5C 119.5,384.833 117.5,384.167 115.5,383.5 Z"/></g>
<g><path style="opacity:1" fill="#b9b7b7" d="M 164.5,383.5 C 162.167,384.167 159.833,384.833 157.5,385.5C 153.5,385.5 149.5,385.5 145.5,385.5C 151.63,384.253 157.963,383.586 164.5,383.5 Z"/></g>
</svg>
